<?xml version="1.0" encoding="utf-8"?>
<svg version="1.1" xmlns:xlink="http://www.w3.org/1999/xlink" width="15px" height="15px" xmlns="http://www.w3.org/2000/svg">
  <g transform="matrix(1 0 0 1 -847 -1617 )">
    <path d="M 14.7017045454545 5.75284090909091  C 14.9005681818182 5.95170454545454  15 6.19318181818182  15 6.47727272727273  L 15 8.52272727272727  C 15 8.80681818181818  14.9005681818182 9.04829545454545  14.7017045454545 9.24715909090909  C 14.5028409090909 9.44602272727273  14.2613636363636 9.54545454545455  13.9772727272727 9.54545454545455  L 9.54545454545455 9.54545454545455  L 9.54545454545455 13.9772727272727  C 9.54545454545455 14.2613636363636  9.44602272727273 14.5028409090909  9.24715909090909 14.7017045454545  C 9.04829545454546 14.9005681818182  8.80681818181818 15  8.52272727272727 15  L 6.47727272727273 15  C 6.19318181818182 15  5.95170454545455 14.9005681818182  5.75284090909091 14.7017045454545  C 5.55397727272727 14.5028409090909  5.45454545454546 14.2613636363636  5.45454545454546 13.9772727272727  L 5.45454545454546 9.54545454545455  L 1.02272727272727 9.54545454545455  C 0.738636363636364 9.54545454545455  0.497159090909091 9.44602272727273  0.298295454545455 9.24715909090909  C 0.0994318181818182 9.04829545454545  0 8.80681818181818  0 8.52272727272727  L 0 6.47727272727273  C 0 6.19318181818182  0.0994318181818182 5.95170454545454  0.298295454545455 5.75284090909091  C 0.497159090909091 5.55397727272727  0.738636363636364 5.45454545454546  1.02272727272727 5.45454545454546  L 5.45454545454546 5.45454545454546  L 5.45454545454546 1.02272727272727  C 5.45454545454546 0.738636363636363  5.55397727272727 0.49715909090909  5.75284090909091 0.298295454545455  C 5.95170454545455 0.0994318181818177  6.19318181818182 0  6.47727272727273 0  L 8.52272727272727 0  C 8.80681818181818 0  9.04829545454546 0.0994318181818177  9.24715909090909 0.298295454545455  C 9.44602272727273 0.49715909090909  9.54545454545455 0.738636363636363  9.54545454545455 1.02272727272727  L 9.54545454545455 5.45454545454546  L 13.9772727272727 5.45454545454546  C 14.2613636363636 5.45454545454546  14.5028409090909 5.55397727272727  14.7017045454545 5.75284090909091  Z " fill-rule="nonzero" fill="#000000" stroke="none" transform="matrix(1 0 0 1 847 1617 )" />
  </g>
</svg>