<?xml version="1.0" encoding="utf-8"?>
<svg version="1.1" xmlns:xlink="http://www.w3.org/1999/xlink" width="70px" height="70px" xmlns="http://www.w3.org/2000/svg">
  <g transform="matrix(1 0 0 1 -135 -1596 )">
    <path d="M 17.431640625 4.69401041666666  C 22.7940538194444 1.56467013888888  28.6501736111111 0  35 0  C 41.3498263888889 0  47.2059461805556 1.56467013888888  52.568359375 4.69401041666666  C 57.9307725694444 7.82335069444444  62.1766493055556 12.0692274305556  65.3059895833333 17.431640625  C 68.4353298611111 22.7940538194444  70 28.6501736111111  70 35  C 70 41.3498263888889  68.4353298611111 47.2059461805556  65.3059895833333 52.568359375  C 62.1766493055556 57.9307725694444  57.9307725694444 62.1766493055556  52.568359375 65.3059895833333  C 47.2059461805556 68.4353298611111  41.3498263888889 70  35 70  C 28.6501736111111 70  22.7940538194444 68.4353298611111  17.431640625 65.3059895833333  C 12.0692274305556 62.1766493055556  7.82335069444445 57.9307725694444  4.69401041666667 52.568359375  C 1.56467013888889 47.2059461805556  0 41.3498263888889  0 35  C 0 28.6501736111111  1.56467013888889 22.7940538194444  4.69401041666667 17.431640625  C 7.82335069444445 12.0692274305556  12.0692274305556 7.82335069444444  17.431640625 4.69401041666666  Z M 49.4466145833333 23.1966145833333  C 48.9301215277778 23.0447048611111  48.2769097222222 23.2269965277778  47.4869791666667 23.7434895833333  C 47.4262152777778 23.7738715277778  47.2819010416667 23.9181857638889  47.0540364583333 24.1764322916667  C 46.826171875 24.4346788194444  46.62109375 24.5789930555556  46.4388020833333 24.609375  C 46.4995659722222 24.609375  46.5679253472222 24.5334201388889  46.6438802083333 24.3815104166667  C 46.7198350694444 24.2296006944444  46.7957899305556 24.0625  46.8717447916667 23.8802083333333  C 46.9476996527778 23.6979166666667  47.0008680555556 23.5915798611111  47.03125 23.5611979166667  C 47.2135416666667 23.3485243055556  47.5477430555556 23.1206597222222  48.0338541666667 22.8776041666667  C 48.4592013888889 22.6953125  49.2491319444444 22.5130208333333  50.4036458333333 22.3307291666667  C 51.4366319444444 22.0876736111111  52.2113715277778 22.2547743055556  52.7278645833333 22.83203125  C 52.6671006944444 22.7712673611111  52.8114149305556 22.5737847222222  53.1608072916667 22.2395833333333  C 53.5101996527778 21.9053819444444  53.73046875 21.7230902777778  53.8216145833333 21.6927083333333  C 53.9127604166667 21.6319444444444  54.140625 21.5635850694444  54.5052083333333 21.4876302083333  C 54.8697916666667 21.4116753472222  55.09765625 21.2977430555556  55.1888020833333 21.1458333333333  L 55.2799479166667 20.1432291666667  C 54.9153645833333 20.1736111111111  54.6495225694444 20.0672743055556  54.482421875 19.82421875  C 54.3153211805556 19.5811631944444  54.2165798611111 19.2621527777778  54.1861979166667 18.8671875  C 54.1861979166667 18.9279513888889  54.0950520833333 19.0494791666667  53.9127604166667 19.2317708333333  C 53.9127604166667 19.0190972222222  53.8444010416667 18.8975694444444  53.7076822916667 18.8671875  C 53.5709635416667 18.8368055555556  53.3962673611111 18.8519965277778  53.18359375 18.9127604166667  C 52.9709201388889 18.9735243055556  52.8342013888889 18.9887152777778  52.7734375 18.9583333333333  C 52.4696180555556 18.8671875  52.2417534722222 18.7532552083333  52.08984375 18.6165364583333  C 51.9379340277778 18.4798177083333  51.81640625 18.2291666666667  51.7252604166667 17.8645833333333  C 51.6341145833333 17.5  51.5733506944444 17.2721354166667  51.54296875 17.1809895833333  C 51.4822048611111 17.0290798611111  51.337890625 16.8619791666667  51.1100260416667 16.6796875  C 50.8821614583333 16.4973958333333  50.7378472222222 16.3454861111111  50.6770833333333 16.2239583333333  C 50.6467013888889 16.1631944444444  50.6087239583333 16.0796440972222  50.5631510416667 15.9733072916667  C 50.517578125 15.8669704861111  50.4720052083333 15.7682291666667  50.4264322916667 15.6770833333333  C 50.380859375 15.5859375  50.3200954861111 15.5023871527778  50.244140625 15.4264322916667  C 50.1681857638889 15.3504774305556  50.0846354166667 15.3125  49.9934895833333 15.3125  C 49.90234375 15.3125  49.7960069444444 15.3884548611111  49.6744791666667 15.5403645833333  C 49.5529513888889 15.6922743055556  49.4390190972222 15.8441840277778  49.3326822916667 15.99609375  C 49.2263454861111 16.1480034722222  49.1579861111111 16.2239583333333  49.1276041666667 16.2239583333333  C 49.0364583333333 16.1631944444444  48.9453125 16.1404079861111  48.8541666666667 16.1555989583333  C 48.7630208333333 16.1707899305556  48.6946614583333 16.1859809027778  48.6490885416667 16.201171875  C 48.603515625 16.2163628472222  48.53515625 16.2619357638889  48.4440104166667 16.337890625  C 48.3528645833333 16.4138454861111  48.2769097222222 16.4670138888889  48.2161458333333 16.4973958333333  C 48.125 16.5581597222222  47.9958767361111 16.6037326388889  47.8287760416667 16.6341145833333  C 47.6616753472222 16.6644965277778  47.5325520833333 16.6948784722222  47.44140625 16.7252604166667  C 47.8971354166667 16.5733506944444  47.8819444444444 16.40625  47.3958333333333 16.2239583333333  C 47.0920138888889 16.1024305555556  46.8489583333333 16.0568576388889  46.6666666666667 16.0872395833333  C 46.9401041666667 15.9657118055556  47.0540364583333 15.7834201388889  47.0084635416667 15.5403645833333  C 46.962890625 15.2973090277778  46.8337673611111 15.0846354166667  46.62109375 14.90234375  L 46.8489583333333 14.90234375  C 46.8185763888889 14.7808159722222  46.689453125 14.6516927083333  46.4615885416667 14.5149739583333  C 46.2337239583333 14.3782552083333  45.9678819444444 14.2491319444444  45.6640625 14.1276041666667  C 45.3602430555556 14.0060763888889  45.1627604166667 13.9149305555556  45.0716145833333 13.8541666666667  C 44.8285590277778 13.7022569444444  44.3120659722222 13.5579427083333  43.5221354166667 13.4212239583333  C 42.7322048611111 13.2845052083333  42.2309027777778 13.2769097222222  42.0182291666667 13.3984375  C 41.8663194444444 13.5807291666667  41.7979600694444 13.740234375  41.8131510416667 13.876953125  C 41.8283420138889 14.013671875  41.8891059027778 14.2263454861111  41.9954427083333 14.5149739583333  C 42.1017795138889 14.8036024305556  42.1549479166667 14.9934895833333  42.1549479166667 15.0846354166667  C 42.1853298611111 15.2669270833333  42.1017795138889 15.4644097222222  41.904296875 15.6770833333333  C 41.7068142361111 15.8897569444444  41.6080729166667 16.0720486111111  41.6080729166667 16.2239583333333  C 41.6080729166667 16.4366319444444  41.8207465277778 16.6720920138889  42.24609375 16.9303385416667  C 42.6714409722222 17.1885850694444  42.8233506944444 17.5151909722222  42.7018229166667 17.91015625  C 42.6106770833333 18.1532118055556  42.3676215277778 18.3962673611111  41.97265625 18.6393229166667  C 41.5776909722222 18.8823784722222  41.3346354166667 19.0646701388889  41.2434895833333 19.1861979166667  C 41.0915798611111 19.4292534722222  41.0687934027778 19.7102864583333  41.1751302083333 20.029296875  C 41.2814670138889 20.3483072916667  41.4409722222222 20.5989583333333  41.6536458333333 20.78125  C 41.7144097222222 20.8420138888889  41.7371961805556 20.9027777777778  41.7220052083333 20.9635416666667  C 41.7068142361111 21.0243055555556  41.6536458333333 21.0926649305556  41.5625 21.1686197916667  C 41.4713541666667 21.2445746527778  41.3878038194444 21.3053385416667  41.3118489583333 21.3509114583333  C 41.2358940972222 21.396484375  41.1371527777778 21.4496527777778  41.015625 21.5104166666667  L 40.87890625 21.6015625  C 40.5447048611111 21.7534722222222  40.2332899305556 21.6623263888889  39.9446614583333 21.328125  C 39.6560329861111 20.9939236111111  39.4509548611111 20.5989583333333  39.3294270833333 20.1432291666667  C 39.1167534722222 19.3836805555556  38.8736979166667 18.9279513888889  38.6002604166667 18.7760416666667  C 37.9014756944444 18.5329861111111  37.4609375 18.5481770833333  37.2786458333333 18.8216145833333  C 37.1267361111111 18.4266493055556  36.50390625 18.0316840277778  35.41015625 17.63671875  C 34.6506076388889 17.36328125  33.76953125 17.3025173611111  32.7669270833333 17.4544270833333  C 32.94921875 17.4240451388889  32.94921875 17.1961805555556  32.7669270833333 16.7708333333333  C 32.5542534722222 16.3151041666667  32.265625 16.1328125  31.9010416666667 16.2239583333333  C 31.9921875 16.0416666666667  32.0529513888889 15.7758246527778  32.0833333333333 15.4264322916667  C 32.1137152777778 15.0770399305556  32.12890625 14.8719618055556  32.12890625 14.8111979166667  C 32.2200520833333 14.4162326388889  32.40234375 14.0668402777778  32.67578125 13.7630208333333  C 32.7061631944445 13.7326388888889  32.8125 13.603515625  32.9947916666667 13.3756510416667  C 33.1770833333333 13.1477864583333  33.3213975694445 12.9427083333333  33.427734375 12.7604166666667  C 33.5340711805556 12.578125  33.5416666666667 12.4869791666667  33.4505208333333 12.4869791666667  C 34.5138888888889 12.6085069444444  35.2734375 12.44140625  35.7291666666667 11.9856770833333  C 35.8810763888889 11.8337673611111  36.0557725694444 11.5755208333333  36.2532552083333 11.2109375  C 36.4507378472222 10.8463541666667  36.6102430555556 10.5881076388889  36.7317708333333 10.4361979166667  C 37.0052083333333 10.25390625  37.2178819444444 10.1703559027778  37.3697916666667 10.185546875  C 37.5217013888889 10.2007378472222  37.7419704861111 10.2842881944444  38.0305989583333 10.4361979166667  C 38.3192274305556 10.5881076388889  38.5394965277778 10.6640625  38.69140625 10.6640625  C 39.1167534722222 10.6944444444444  39.3522135416667 10.52734375  39.3977864583333 10.1627604166667  C 39.443359375 9.79817708333334  39.3294270833333 9.49435763888888  39.0559895833333 9.25130208333334  C 39.4205729166667 9.28168402777777  39.4661458333333 9.0234375  39.1927083333333 8.4765625  C 39.0711805555556 8.26388888888888  38.9496527777778 8.12717013888888  38.828125 8.06640625  C 38.4635416666667 7.94487847222222  38.0533854166667 8.02083333333334  37.59765625 8.29427083333334  C 37.3546006944444 8.4157986111111  37.3849826388889 8.53732638888888  37.6888020833333 8.65885416666666  C 37.6584201388889 8.62847222222222  37.5141059027778 8.78797743055556  37.255859375 9.13736979166666  C 36.9976128472222 9.48676215277777  36.7469618055556 9.75260416666666  36.50390625 9.93489583333334  C 36.2608506944444 10.1171875  36.0177951388889 10.0412326388889  35.7747395833333 9.70703125  C 35.7443576388889 9.67664930555556  35.6608072916667 9.47157118055556  35.5240885416667 9.091796875  C 35.3873697916667 8.71202256944444  35.2430555555556 8.50694444444444  35.0911458333333 8.4765625  C 34.8480902777778 8.4765625  34.6050347222222 8.70442708333334  34.3619791666667 9.16015625  C 34.453125 8.91710069444444  34.2860243055556 8.6892361111111  33.8606770833333 8.4765625  C 33.4353298611111 8.26388888888888  33.0707465277778 8.1423611111111  32.7669270833333 8.11197916666666  C 33.3441840277778 7.74739583333334  33.22265625 7.33723958333334  32.40234375 6.88151041666666  C 32.1896701388889 6.75998263888888  31.8782552083333 6.68402777777777  31.4680989583333 6.65364583333334  C 31.0579427083333 6.62326388888888  30.76171875 6.68402777777777  30.5794270833333 6.8359375  C 30.4275173611111 7.0486111111111  30.3439670138889 7.22330729166666  30.3287760416667 7.36002604166666  C 30.3135850694445 7.49674479166666  30.3895399305556 7.61827256944444  30.556640625 7.724609375  C 30.7237413194445 7.83094618055555  30.8832465277778 7.91449652777777  31.03515625 7.97526041666666  C 31.1870659722222 8.03602430555556  31.3617621527778 8.09678819444444  31.5592447916667 8.15755208333334  C 31.7567274305556 8.21831597222222  31.8858506944445 8.26388888888888  31.9466145833333 8.29427083333334  C 32.3719618055556 8.59809027777777  32.4934895833333 8.81076388888888  32.3111979166667 8.93229166666666  C 32.2504340277778 8.9626736111111  32.1213107638889 9.01584201388888  31.923828125 9.091796875  C 31.7263454861111 9.1677517361111  31.5516493055556 9.2361111111111  31.3997395833333 9.296875  C 31.2478298611111 9.35763888888888  31.1566840277778 9.41840277777777  31.1263020833333 9.47916666666666  C 31.03515625 9.60069444444444  31.03515625 9.81336805555556  31.1263020833333 10.1171875  C 31.2174479166667 10.4210069444444  31.1870659722222 10.6336805555556  31.03515625 10.7552083333333  C 30.8832465277778 10.6032986111111  30.7465277777778 10.3374565972222  30.625 9.95768229166666  C 30.5034722222222 9.5779079861111  30.3971354166667 9.32725694444444  30.3059895833333 9.20572916666666  C 30.5186631944445 9.47916666666666  30.1388888888889 9.5703125  29.1666666666667 9.47916666666666  L 28.7109375 9.43359375  C 28.5894097222222 9.43359375  28.3463541666667 9.46397569444444  27.9817708333333 9.52473958333334  C 27.6171875 9.58550347222222  27.3057725694445 9.60069444444444  27.0475260416667 9.5703125  C 26.7892795138889 9.53993055555556  26.5842013888889 9.41840277777777  26.4322916666667 9.20572916666666  C 26.3107638888889 8.9626736111111  26.3107638888889 8.65885416666666  26.4322916666667 8.29427083333334  C 26.4626736111111 8.17274305555556  26.5234375 8.1423611111111  26.6145833333333 8.203125  C 26.4930555555556 8.11197916666666  26.3259548611111 7.96766493055555  26.11328125 7.77018229166666  C 25.9006076388889 7.57269965277777  25.7486979166667 7.44357638888888  25.6575520833333 7.3828125  C 24.2599826388889 7.83854166666666  22.83203125 8.46137152777777  21.3736979166667 9.25130208333334  C 21.5559895833333 9.28168402777777  21.73828125 9.26649305555556  21.9205729166667 9.20572916666666  C 22.0724826388889 9.14496527777777  22.2699652777778 9.04622395833334  22.5130208333333 8.90950520833334  C 22.7560763888889 8.77278645833334  22.9079861111111 8.6892361111111  22.96875 8.65885416666666  C 24.0017361111111 8.23350694444444  24.6397569444445 8.12717013888888  24.8828125 8.33984375  L 25.1106770833333 8.11197916666666  C 25.5360243055556 8.59809027777777  25.83984375 8.97786458333334  26.0221354166667 9.25130208333334  C 25.8094618055556 9.12977430555556  25.3537326388889 9.11458333333334  24.6549479166667 9.20572916666666  C 24.0473090277778 9.38802083333334  23.7131076388889 9.5703125  23.65234375 9.75260416666666  C 23.8650173611111 10.1171875  23.9409722222222 10.390625  23.8802083333333 10.5729166666667  C 23.7586805555556 10.4817708333333  23.583984375 10.3298611111111  23.3561197916667 10.1171875  C 23.1282552083333 9.90451388888888  22.9079861111111 9.73741319444444  22.6953125 9.61588541666666  C 22.4826388888889 9.49435763888888  22.2547743055556 9.41840277777777  22.01171875 9.38802083333334  C 21.5256076388889 9.38802083333334  21.19140625 9.40321180555556  21.0091145833333 9.43359375  C 16.5733506944444 11.8641493055556  13.0034722222222 15.2365451388889  10.2994791666667 19.55078125  C 10.5121527777778 19.7634548611111  10.6944444444444 19.8849826388889  10.8463541666667 19.9153645833333  C 10.9678819444444 19.9457465277778  11.0438368055556 20.0824652777778  11.07421875 20.3255208333333  C 11.1046006944444 20.5685763888889  11.142578125 20.7356770833333  11.1881510416667 20.8268229166667  C 11.2337239583333 20.91796875  11.4084201388889 20.8723958333333  11.7122395833333 20.6901041666667  C 11.9856770833333 20.9331597222222  12.03125 21.2217881944444  11.8489583333333 21.5559895833333  C 11.8793402777778 21.5256076388889  12.5477430555556 21.9357638888889  13.8541666666667 22.7864583333333  C 14.4314236111111 23.3029513888889  14.7504340277778 23.6219618055556  14.8111979166667 23.7434895833333  C 14.90234375 24.0776909722222  14.7504340277778 24.3511284722222  14.35546875 24.5638020833333  C 14.3250868055556 24.5030381944444  14.1883680555556 24.3663194444444  13.9453125 24.1536458333333  C 13.7022569444444 23.9409722222222  13.5655381944444 23.8802083333333  13.53515625 23.9713541666667  C 13.4440104166667 24.1232638888889  13.4516059027778 24.404296875  13.5579427083333 24.814453125  C 13.6642795138889 25.224609375  13.8237847222222 25.4144965277778  14.0364583333333 25.3841145833333  C 13.8237847222222 25.3841145833333  13.6794704861111 25.6271701388889  13.603515625 26.11328125  C 13.5275607638889 26.5993923611111  13.4895833333333 27.138671875  13.4895833333333 27.7311197916667  C 13.4895833333333 28.3235677083333  13.4743923611111 28.6805555555556  13.4440104166667 28.8020833333333  L 13.53515625 28.84765625  C 13.4440104166667 29.2122395833333  13.5275607638889 29.736328125  13.7858072916667 30.419921875  C 14.0440538194444 31.103515625  14.3706597222222 31.3997395833333  14.765625 31.30859375  C 14.3706597222222 31.3997395833333  14.6744791666667 32.0529513888889  15.6770833333333 33.2682291666667  C 15.859375 33.5112847222222  15.9809027777778 33.6480034722222  16.0416666666667 33.6783854166667  C 16.1328125 33.7391493055556  16.3151041666667 33.8530815972222  16.5885416666667 34.0201822916667  C 16.8619791666667 34.1872829861111  17.08984375 34.3391927083333  17.2721354166667 34.4759114583333  C 17.4544270833333 34.6126302083333  17.6063368055556 34.7721354166667  17.7278645833333 34.9544270833333  C 17.8493923611111 35.1063368055556  18.0013020833333 35.4481336805556  18.18359375 35.9798177083333  C 18.3658854166667 36.5115017361111  18.5785590277778 36.8684895833333  18.8216145833333 37.05078125  C 18.7608506944445 37.2330729166667  18.9051649305556 37.5368923611111  19.2545572916667 37.9622395833333  C 19.6039496527778 38.3875868055556  19.7634548611111 38.7369791666667  19.7330729166667 39.0104166666667  C 19.7026909722222 39.0104166666667  19.6647135416667 39.0256076388889  19.619140625 39.0559895833333  C 19.5735677083333 39.0863715277778  19.5355902777778 39.1015625  19.5052083333333 39.1015625  C 19.5963541666667 39.3142361111111  19.8318142361111 39.5269097222222  20.2115885416667 39.7395833333333  C 20.5913628472222 39.9522569444444  20.8268229166667 40.1497395833333  20.91796875 40.33203125  C 20.9483506944444 40.4231770833333  20.9787326388889 40.5750868055556  21.0091145833333 40.7877604166667  C 21.0394965277778 41.0004340277778  21.0850694444445 41.1675347222222  21.1458333333333 41.2890625  C 21.2065972222222 41.4105902777778  21.328125 41.4409722222222  21.5104166666667 41.3802083333333  C 21.5711805555556 40.7725694444444  21.2065972222222 39.8307291666667  20.4166666666667 38.5546875  C 19.9609375 37.7951388888889  19.7026909722222 37.3546006944444  19.6419270833333 37.2330729166667  C 19.55078125 37.0811631944444  19.4672309027778 36.845703125  19.3912760416667 36.5266927083333  C 19.3153211805556 36.2076822916667  19.2469618055556 35.9874131944444  19.1861979166667 35.8658854166667  C 19.2469618055556 35.8658854166667  19.3381076388889 35.888671875  19.4596354166667 35.9342447916667  C 19.5811631944444 35.9798177083333  19.7102864583333 36.0329861111111  19.8470052083333 36.09375  C 19.9837239583333 36.1545138888889  20.09765625 36.2152777777778  20.1888020833333 36.2760416666667  C 20.2799479166667 36.3368055555556  20.3103298611111 36.3823784722222  20.2799479166667 36.4127604166667  C 20.1888020833333 36.6254340277778  20.2191840277778 36.8912760416667  20.37109375 37.2102864583333  C 20.5230034722222 37.529296875  20.7052951388889 37.8103298611111  20.91796875 38.0533854166667  C 21.1306423611111 38.2964409722222  21.3888888888889 38.5850694444444  21.6927083333333 38.9192708333333  C 21.9965277777778 39.2534722222222  22.1788194444445 39.4509548611111  22.2395833333333 39.51171875  C 22.421875 39.6940104166667  22.6345486111111 39.990234375  22.8776041666667 40.400390625  C 23.1206597222222 40.810546875  23.1206597222222 41.015625  22.8776041666667 41.015625  C 23.1510416666667 41.015625  23.4548611111111 41.1751302083333  23.7890625 41.494140625  C 24.1232638888889 41.8131510416667  24.3815104166667 42.109375  24.5638020833333 42.3828125  C 24.7157118055556 42.6258680555556  24.8372395833333 43.0208333333333  24.9283854166667 43.5677083333333  C 25.01953125 44.1145833333333  25.0954861111111 44.4791666666667  25.15625 44.6614583333333  C 25.2170138888889 44.8741319444444  25.3461371527778 45.0792100694444  25.5436197916667 45.2766927083333  C 25.7411024305556 45.4741753472222  25.9309895833333 45.6184895833333  26.11328125 45.7096354166667  L 26.8424479166667 46.07421875  C 26.8424479166667 46.07421875  27.0399305555556 46.1805555555556  27.4348958333333 46.3932291666667  C 27.5868055555556 46.4539930555556  27.8678385416667 46.6134982638889  28.2779947916667 46.8717447916667  C 28.6881510416667 47.1299913194444  29.0147569444445 47.3046875  29.2578125 47.3958333333333  C 29.5616319444445 47.5173611111111  29.8046875 47.578125  29.9869791666667 47.578125  C 30.1692708333333 47.578125  30.3895399305556 47.5401475694444  30.6477864583333 47.4641927083333  C 30.9060329861111 47.3882378472222  31.1111111111111 47.3350694444444  31.2630208333333 47.3046875  C 31.71875 47.2439236111111  32.1592881944445 47.4717881944444  32.5846354166667 47.98828125  C 33.0099826388889 48.5047743055556  33.3289930555556 48.8237847222222  33.5416666666667 48.9453125  C 34.6354166666667 49.5225694444444  35.4709201388889 49.6896701388889  36.0481770833333 49.4466145833333  C 35.9874131944444 49.4769965277778  35.9950086805556 49.5909288194444  36.0709635416667 49.7884114583333  C 36.1469184027778 49.9858940972222  36.2684461805556 50.2213541666667  36.435546875 50.4947916666667  C 36.6026475694444 50.7682291666667  36.7393663194444 50.9884982638889  36.845703125 51.1555989583333  C 36.9520399305556 51.3226996527778  37.0355902777778 51.4518229166667  37.0963541666667 51.54296875  C 37.2482638888889 51.7252604166667  37.5217013888889 51.953125  37.9166666666667 52.2265625  C 38.3116319444444 52.5  38.5850694444444 52.7278645833333  38.7369791666667 52.91015625  C 38.9192708333333 52.7886284722222  39.0256076388889 52.6519097222222  39.0559895833333 52.5  C 38.96484375 52.7430555555556  39.0711805555556 53.046875  39.375 53.4114583333333  C 39.6788194444444 53.7760416666667  39.9522569444444 53.9279513888889  40.1953125 53.8671875  C 40.6206597222222 53.7760416666667  40.8333333333333 53.2899305555556  40.8333333333333 52.4088541666667  C 39.8914930555556 52.8645833333333  39.1471354166667 52.5911458333333  38.6002604166667 51.5885416666667  C 38.6002604166667 51.5581597222222  38.5622829861111 51.474609375  38.486328125 51.337890625  C 38.4103732638889 51.201171875  38.349609375 51.0720486111111  38.3040364583333 50.9505208333333  C 38.2584635416667 50.8289930555556  38.2204861111111 50.6998697916667  38.1901041666667 50.5631510416667  C 38.1597222222222 50.4264322916667  38.1597222222222 50.3125  38.1901041666667 50.2213541666667  C 38.2204861111111 50.1302083333333  38.2964409722222 50.0846354166667  38.41796875 50.0846354166667  C 38.69140625 50.0846354166667  38.8433159722222 50.0314670138889  38.8736979166667 49.9251302083333  C 38.9040798611111 49.8187934027778  38.8736979166667 49.62890625  38.7825520833333 49.35546875  C 38.69140625 49.08203125  38.6306423611111 48.8845486111111  38.6002604166667 48.7630208333333  C 38.5698784722222 48.5199652777778  38.4027777777778 48.2161458333333  38.0989583333333 47.8515625  C 37.7951388888889 47.4869791666667  37.6128472222222 47.2591145833333  37.5520833333333 47.16796875  C 37.4001736111111 47.44140625  37.1571180555556 47.5629340277778  36.8229166666667 47.5325520833333  C 36.4887152777778 47.5021701388889  36.2456597222222 47.3654513888889  36.09375 47.1223958333333  C 36.09375 47.1527777777778  36.0709635416667 47.236328125  36.025390625 47.373046875  C 35.9798177083333 47.509765625  35.95703125 47.6085069444444  35.95703125 47.6692708333333  C 35.5620659722222 47.6692708333333  35.3342013888889 47.6540798611111  35.2734375 47.6236979166667  C 35.3038194444444 47.5325520833333  35.341796875 47.2667100694444  35.3873697916667 46.826171875  C 35.4329427083333 46.3856336805556  35.4861111111111 46.0438368055556  35.546875 45.80078125  C 35.5772569444444 45.6792534722222  35.6608072916667 45.4969618055556  35.7975260416667 45.25390625  C 35.9342447916667 45.0108506944444  36.0481770833333 44.7905815972222  36.1393229166667 44.5930989583333  C 36.23046875 44.3956163194444  36.2912326388889 44.2057291666667  36.3216145833333 44.0234375  C 36.3519965277778 43.8411458333333  36.2836371527778 43.6968315972222  36.1165364583333 43.5904947916667  C 35.9494357638889 43.4841579861111  35.68359375 43.4461805555556  35.3190104166667 43.4765625  C 34.7417534722222 43.5069444444444  34.3467881944445 43.8107638888889  34.1341145833333 44.3880208333333  C 34.1037326388889 44.4791666666667  34.0581597222222 44.638671875  33.9973958333333 44.8665364583333  C 33.9366319444445 45.0944010416667  33.8606770833333 45.2690972222222  33.76953125 45.390625  C 33.6783854166667 45.5121527777778  33.5416666666667 45.6184895833333  33.359375 45.7096354166667  C 33.1467013888889 45.80078125  32.7821180555556 45.8311631944444  32.265625 45.80078125  C 31.7491319444445 45.7703993055556  31.3845486111111 45.6944444444444  31.171875 45.5729166666667  C 30.7769097222222 45.3298611111111  30.4351128472222 44.8893229166667  30.146484375 44.2513020833333  C 29.8578559027778 43.61328125  29.7135416666667 43.0512152777778  29.7135416666667 42.5651041666667  C 29.7135416666667 42.2612847222222  29.7515190972222 41.8587239583333  29.8274739583333 41.357421875  C 29.9034288194445 40.8561197916667  29.9490017361111 40.4763454861111  29.9641927083333 40.2180989583333  C 29.9793836805556 39.9598524305556  29.8958333333333 39.5876736111111  29.7135416666667 39.1015625  C 29.8046875 39.0407986111111  29.94140625 38.896484375  30.1236979166667 38.6686197916667  C 30.3059895833333 38.4407552083333  30.4578993055556 38.28125  30.5794270833333 38.1901041666667  C 30.6401909722222 38.1597222222222  30.7085503472222 38.1369357638889  30.7845052083333 38.1217447916667  C 30.8604600694445 38.1065538194444  30.9288194444445 38.1065538194444  30.9895833333333 38.1217447916667  C 31.0503472222222 38.1369357638889  31.1111111111111 38.1141493055556  31.171875 38.0533854166667  C 31.2326388888889 37.9926215277778  31.2782118055556 37.9014756944444  31.30859375 37.7799479166667  C 31.2782118055556 37.7495659722222  31.2174479166667 37.7039930555556  31.1263020833333 37.6432291666667  C 31.03515625 37.5520833333333  30.9743923611111 37.5065104166667  30.9440104166667 37.5065104166667  C 31.1566840277778 37.59765625  31.5896267361111 37.5748697916667  32.2428385416667 37.4381510416667  C 32.8960503472222 37.3014322916667  33.3138020833333 37.32421875  33.49609375 37.5065104166667  C 33.9518229166667 37.8407118055556  34.2860243055556 37.8103298611111  34.4986979166667 37.4153645833333  C 34.4986979166667 37.3849826388889  34.4607204861111 37.2406684027778  34.384765625 36.982421875  C 34.3088107638889 36.7241753472222  34.3012152777778 36.5190972222222  34.3619791666667 36.3671875  C 34.5138888888889 37.1875  34.9544270833333 37.32421875  35.68359375 36.77734375  C 35.7747395833333 36.8684895833333  36.0101996527778 36.9444444444444  36.3899739583333 37.0052083333333  C 36.7697482638889 37.0659722222222  37.0355902777778 37.1419270833333  37.1875 37.2330729166667  C 37.2786458333333 37.2938368055556  37.3849826388889 37.3773871527778  37.5065104166667 37.4837239583333  C 37.6280381944444 37.5900607638889  37.7115885416667 37.6584201388889  37.7571614583333 37.6888020833333  C 37.802734375 37.7191840277778  37.8786892361111 37.7115885416667  37.9850260416667 37.666015625  C 38.0913628472222 37.6204427083333  38.2204861111111 37.5217013888889  38.3723958333333 37.3697916666667  C 38.6762152777778 37.7951388888889  38.8585069444444 38.1597222222222  38.9192708333333 38.4635416666667  C 39.2534722222222 39.6788194444444  39.5421006944444 40.3472222222222  39.78515625 40.46875  C 39.9978298611111 40.5598958333333  40.1649305555556 40.5902777777778  40.2864583333333 40.5598958333333  C 40.4079861111111 40.5295138888889  40.4763454861111 40.3851996527778  40.4915364583333 40.126953125  C 40.5067274305556 39.8687065972222  40.5067274305556 39.6560329861111  40.4915364583333 39.4889322916667  C 40.4763454861111 39.3218315972222  40.4535590277778 39.1319444444444  40.4231770833333 38.9192708333333  L 40.3776041666667 38.5546875  L 40.3776041666667 37.734375  L 40.33203125 37.3697916666667  C 39.8763020833333 37.2786458333333  39.5952690972222 37.0963541666667  39.4889322916667 36.8229166666667  C 39.3825954861111 36.5494791666667  39.4053819444444 36.2684461805556  39.5572916666667 35.9798177083333  C 39.7092013888889 35.6911892361111  39.9370659722222 35.41015625  40.2408854166667 35.13671875  C 40.2712673611111 35.1063368055556  40.3927951388889 35.0531684027778  40.60546875 34.9772135416667  C 40.8181423611111 34.9012586805556  41.0536024305556 34.8025173611111  41.3118489583333 34.6809895833333  C 41.5700954861111 34.5594618055556  41.7599826388889 34.4379340277778  41.8815104166667 34.31640625  C 42.51953125 33.7391493055556  42.7473958333333 33.2074652777778  42.5651041666667 32.7213541666667  C 42.7777777777778 32.7213541666667  42.9448784722222 32.5846354166667  43.06640625 32.3111979166667  C 43.0360243055556 32.3111979166667  42.9600694444444 32.265625  42.8385416666667 32.1744791666667  C 42.7170138888889 32.0833333333333  42.6030815972222 32.0073784722222  42.4967447916667 31.9466145833333  C 42.3904079861111 31.8858506944444  42.3220486111111 31.85546875  42.2916666666667 31.85546875  C 42.5651041666667 31.7035590277778  42.5954861111111 31.4605034722222  42.3828125 31.1263020833333  C 42.5347222222222 31.03515625  42.6486545138889 30.8680555555556  42.724609375 30.625  C 42.8005642361111 30.3819444444444  42.9144965277778 30.2300347222222  43.06640625 30.1692708333333  C 43.33984375 30.5338541666667  43.6588541666667 30.5642361111111  44.0234375 30.2604166666667  C 44.2664930555556 30.0173611111111  44.2816840277778 29.7743055555556  44.0690104166667 29.53125  C 44.2209201388889 29.3185763888889  44.5323350694444 29.1590711805556  45.0032552083333 29.052734375  C 45.4741753472222 28.9463975694444  45.7552083333333 28.8020833333333  45.8463541666667 28.6197916666667  C 46.0590277777778 28.6805555555556  46.1805555555556 28.6501736111111  46.2109375 28.5286458333333  C 46.2413194444444 28.4071180555556  46.2565104166667 28.2248263888889  46.2565104166667 27.9817708333333  C 46.2565104166667 27.7387152777778  46.3020833333333 27.5564236111111  46.3932291666667 27.4348958333333  C 46.5147569444444 27.2829861111111  46.7426215277778 27.1462673611111  47.0768229166667 27.0247395833333  C 47.4110243055556 26.9032118055556  47.6085069444444 26.8272569444444  47.6692708333333 26.796875  L 48.4440104166667 26.2955729166667  C 48.53515625 26.1740451388889  48.53515625 26.11328125  48.4440104166667 26.11328125  C 48.9908854166667 26.1740451388889  49.4618055555556 26.0069444444444  49.8567708333333 25.6119791666667  C 50.1605902777778 25.2777777777778  50.0694444444444 24.9739583333333  49.5833333333333 24.7005208333333  C 49.6744791666667 24.5182291666667  49.62890625 24.3739149305556  49.4466145833333 24.267578125  C 49.2643229166667 24.1612413194444  49.0364583333333 24.0776909722222  48.7630208333333 24.0169270833333  C 48.8541666666667 23.9865451388889  49.0288628472222 23.9789496527778  49.287109375 23.994140625  C 49.5453559027778 24.0093315972222  49.7048611111111 23.9865451388889  49.765625 23.92578125  C 50.2213541666667 23.6219618055556  50.1150173611111 23.37890625  49.4466145833333 23.1966145833333  Z M 39.9674479166667 62.9817708333333  C 39.9674479166667 63.1640625  39.9978298611111 63.4071180555556  40.05859375 63.7109375  C 46.3172743055556 62.6171875  51.6493055555556 59.74609375  56.0546875 55.09765625  C 55.9635416666667 55.0065104166667  55.7736545138889 54.9381510416667  55.4850260416667 54.892578125  C 55.1963975694444 54.8470052083333  55.0065104166667 54.7938368055556  54.9153645833333 54.7330729166667  C 54.3684895833333 54.5203993055556  54.00390625 54.3988715277778  53.8216145833333 54.3684895833333  C 53.8519965277778 54.1558159722222  53.8140190972222 53.9583333333333  53.7076822916667 53.7760416666667  C 53.6013454861111 53.59375  53.4798177083333 53.45703125  53.3430989583333 53.3658854166667  C 53.2063802083333 53.2747395833333  53.0164930555556 53.1532118055556  52.7734375 53.0013020833333  C 52.5303819444444 52.8493923611111  52.36328125 52.7430555555556  52.2721354166667 52.6822916666667  C 52.2113715277778 52.6215277777778  52.1050347222222 52.5303819444444  51.953125 52.4088541666667  C 51.8012152777778 52.2873263888889  51.6948784722222 52.2037760416667  51.6341145833333 52.158203125  C 51.5733506944444 52.1126302083333  51.4594184027778 52.0442708333333  51.2923177083333 51.953125  C 51.1252170138889 51.8619791666667  50.99609375 51.8315972222222  50.9049479166667 51.8619791666667  C 50.8138020833333 51.8923611111111  50.6618923611111 51.9075520833333  50.44921875 51.9075520833333  L 50.3125 51.953125  C 50.2213541666667 51.9835069444444  50.1378038194444 52.021484375  50.0618489583333 52.0670572916667  C 49.9858940972222 52.1126302083333  49.90234375 52.158203125  49.8111979166667 52.2037760416667  C 49.7200520833333 52.2493489583333  49.6592881944444 52.294921875  49.62890625 52.3404947916667  C 49.5985243055556 52.3860677083333  49.5985243055556 52.4240451388889  49.62890625 52.4544270833333  C 48.9908854166667 51.9379340277778  48.4440104166667 51.6037326388889  47.98828125 51.4518229166667  C 47.8363715277778 51.4214409722222  47.6692708333333 51.337890625  47.4869791666667 51.201171875  C 47.3046875 51.064453125  47.1451822916667 50.9581163194444  47.0084635416667 50.8821614583333  C 46.8717447916667 50.8062065972222  46.7198350694444 50.7834201388889  46.552734375 50.8138020833333  C 46.3856336805556 50.8441840277778  46.2109375 50.9505208333333  46.0286458333333 51.1328125  C 45.8767361111111 51.2847222222222  45.7855902777778 51.5125868055556  45.7552083333333 51.81640625  C 45.7248263888889 52.1202256944444  45.6944444444444 52.3177083333333  45.6640625 52.4088541666667  C 45.4513888888889 52.2569444444444  45.4513888888889 51.9911024305556  45.6640625 51.611328125  C 45.8767361111111 51.2315538194444  45.9071180555556 50.9505208333333  45.7552083333333 50.7682291666667  C 45.6640625 50.5859375  45.5045572916667 50.517578125  45.2766927083333 50.5631510416667  C 45.048828125 50.6087239583333  44.8665364583333 50.6770833333333  44.7298177083333 50.7682291666667  C 44.5930989583333 50.859375  44.4184027777778 50.9884982638889  44.2057291666667 51.1555989583333  C 43.9930555555556 51.3226996527778  43.8563368055556 51.4214409722222  43.7955729166667 51.4518229166667  C 43.7348090277778 51.4822048611111  43.6056857638889 51.5657552083333  43.408203125 51.7024739583333  C 43.2107204861111 51.8391927083333  43.0815972222222 51.953125  43.0208333333333 52.0442708333333  C 42.9296875 52.1657986111111  42.8385416666667 52.3480902777778  42.7473958333333 52.5911458333333  C 42.65625 52.8342013888889  42.5802951388889 53.0013020833333  42.51953125 53.0924479166667  C 42.4587673611111 52.9709201388889  42.2840711805556 52.8721788194444  41.9954427083333 52.7962239583333  C 41.7068142361111 52.7202690972222  41.5625 52.63671875  41.5625 52.5455729166667  C 41.6232638888889 52.8493923611111  41.6840277777778 53.3810763888889  41.7447916666667 54.140625  C 41.8055555555556 54.9001736111111  41.8815104166667 55.4774305555556  41.97265625 55.8723958333333  C 42.1853298611111 56.8142361111111  42.0030381944444 57.5434027777778  41.42578125 58.0598958333333  C 40.60546875 58.8194444444444  40.1649305555556 59.4270833333333  40.1041666666667 59.8828125  C 39.9826388888889 60.5512152777778  40.1649305555556 60.9461805555556  40.6510416666667 61.0677083333333  C 40.6510416666667 61.2803819444444  40.5295138888889 61.591796875  40.2864583333333 62.001953125  C 40.0434027777778 62.412109375  39.9370659722222 62.7387152777778  39.9674479166667 62.9817708333333  Z " fill-rule="nonzero" fill="#000000" stroke="none" transform="matrix(1 0 0 1 135 1596 )" />
  </g>
</svg>