<?xml version="1.0" encoding="utf-8"?>
<svg version="1.1" xmlns:xlink="http://www.w3.org/1999/xlink" width="90px" height="90px" xmlns="http://www.w3.org/2000/svg">
  <defs>
    <filter x="264px" y="4384px" width="90px" height="90px" filterUnits="userSpaceOnUse" id="filter3">
      <feOffset dx="10" dy="10" in="SourceAlpha" result="shadowOffsetInner" />
      <feGaussianBlur stdDeviation="5" in="shadowOffsetInner" result="shadowGaussian" />
      <feComposite in2="shadowGaussian" operator="atop" in="SourceAlpha" result="shadowComposite" />
      <feColorMatrix type="matrix" values="0 0 0 0 0.333333333333333  0 0 0 0 0.333333333333333  0 0 0 0 0.333333333333333  0 0 0 1 0  " in="shadowComposite" />
    </filter>
    <g id="widget4">
      <path d="M 47.7490234375 16.3151041666667  C 49.4580078125 17.4696180555556  50.3125 18.8368055555556  50.3125 20.4166666666667  C 50.3125 20.8116319444444  50.0960286458333 21.1534288194444  49.6630859375 21.4420572916667  C 49.2301432291667 21.7306857638889  48.7174479166667 21.875  48.125 21.875  C 47.5325520833333 21.875  47.0198567708333 21.7306857638889  46.5869140625 21.4420572916667  C 46.1539713541667 21.1534288194444  45.9375 20.8116319444444  45.9375 20.4166666666667  C 45.9375 19.0190972222222  44.70703125 17.9405381944444  42.24609375 17.1809895833333  C 39.78515625 16.4214409722222  37.3697916666667 16.0416666666667  35 16.0416666666667  C 34.4075520833333 16.0416666666667  33.8948567708333 15.8973524305556  33.4619140625 15.6087239583333  C 33.0289713541667 15.3200954861111  32.8125 14.9782986111111  32.8125 14.5833333333333  C 32.8125 14.1883680555556  33.0289713541667 13.8465711805556  33.4619140625 13.5579427083333  C 33.8948567708333 13.2693142361111  34.4075520833333 13.125  35 13.125  C 37.2786458333333 13.125  39.5458984375 13.3680555555556  41.8017578125 13.8541666666667  C 44.0576171875 14.3402777777778  46.0400390625 15.1605902777778  47.7490234375 16.3151041666667  Z M 56.6015625 28.6197916666667  C 59.7005208333333 26.2196180555556  61.25 23.4852430555556  61.25 20.4166666666667  C 61.25 18.2291666666667  60.4638671875 16.1935763888889  58.8916015625 14.3098958333333  C 57.3193359375 12.4262152777778  55.2685546875 10.8843315972222  52.7392578125 9.68424479166666  C 50.2099609375 8.4841579861111  47.4072265625 7.54231770833334  44.3310546875 6.85872395833334  C 41.2548828125 6.17513020833334  38.14453125 5.83333333333334  35 5.83333333333334  C 31.85546875 5.83333333333334  28.7451171875 6.17513020833334  25.6689453125 6.85872395833334  C 22.5927734375 7.54231770833334  19.7900390625 8.4841579861111  17.2607421875 9.68424479166666  C 14.7314453125 10.8843315972222  12.6806640625 12.4262152777778  11.1083984375 14.3098958333333  C 9.5361328125 16.1935763888889  8.75 18.2291666666667  8.75 20.4166666666667  C 8.75 23.4852430555556  10.2994791666667 26.2196180555556  13.3984375 28.6197916666667  C 13.8541666666667 28.9539930555556  14.5491536458333 29.4552951388889  15.4833984375 30.1236979166667  C 16.4176432291667 30.7921006944444  17.1126302083333 31.2934027777778  17.568359375 31.6276041666667  C 23.4016927083333 36.2760416666667  26.6145833333333 40.8029513888889  27.20703125 45  L 42.79296875 45  C 43.3854166666667 40.8029513888889  46.5983072916667 36.2760416666667  52.431640625 31.6276041666667  C 52.8873697916667 31.2934027777778  53.5823567708333 30.7921006944444  54.5166015625 30.1236979166667  C 55.4508463541667 29.4552951388889  56.1458333333333 28.9539930555556  56.6015625 28.6197916666667  Z M 66.9580078125 12.0084635416667  C 68.9860026041667 14.6061197916667  70 17.4088541666667  70 20.4166666666667  C 70 25.1258680555556  67.6529947916667 29.1970486111111  62.958984375 32.6302083333333  C 60.908203125 34.1189236111111  59.2106119791667 35.4405381944444  57.8662109375 36.5950520833333  C 56.5218098958333 37.7495659722222  55.166015625 39.2003038194444  53.798828125 40.947265625  C 52.431640625 42.6942274305556  51.6569010416667 44.3272569444444  51.474609375 45.8463541666667  C 53.6165364583333 46.6970486111111  54.6875 47.9427083333333  54.6875 49.5833333333333  C 54.6875 50.7074652777778  54.1178385416667 51.6796875  52.978515625 52.5  C 54.1178385416667 53.3203125  54.6875 54.2925347222222  54.6875 55.4166666666667  C 54.6875 56.9965277777778  53.662109375 58.2269965277778  51.611328125 59.1080729166667  C 52.2037760416667 59.8068576388889  52.5 60.5208333333333  52.5 61.25  C 52.5 62.6475694444444  51.7822265625 63.7261284722222  50.3466796875 64.4856770833333  C 48.9111328125 65.2452256944444  47.1451822916667 65.625  45.048828125 65.625  C 44.1373697916667 66.9618055555556  42.7701822916667 68.0251736111111  40.947265625 68.8151041666667  C 39.1243489583333 69.6050347222222  37.1419270833333 70  35 70  C 32.8580729166667 70  30.8756510416667 69.6050347222222  29.052734375 68.8151041666667  C 27.2298177083333 68.0251736111111  25.8626302083333 66.9618055555556  24.951171875 65.625  C 22.8548177083333 65.625  21.0888671875 65.2452256944444  19.6533203125 64.4856770833333  C 18.2177734375 63.7261284722222  17.5 62.6475694444444  17.5 61.25  C 17.5 60.5208333333333  17.7962239583333 59.8068576388889  18.388671875 59.1080729166667  C 16.337890625 58.2269965277778  15.3125 56.9965277777778  15.3125 55.4166666666667  C 15.3125 54.2925347222222  15.8821614583333 53.3203125  17.021484375 52.5  C 15.8821614583333 51.6796875  15.3125 50.7074652777778  15.3125 49.5833333333333  C 15.3125 47.9427083333333  16.3834635416667 46.6970486111111  18.525390625 45.8463541666667  C 18.3430989583333 44.3272569444444  17.568359375 42.6942274305556  16.201171875 40.947265625  C 14.833984375 39.2003038194444  13.4781901041667 37.7495659722222  12.1337890625 36.5950520833333  C 10.7893880208333 35.4405381944444  9.091796875 34.1189236111111  7.041015625 32.6302083333333  C 2.34700520833333 29.1970486111111  0 25.1258680555556  0 20.4166666666667  C 0 17.4088541666667  1.01399739583333 14.6061197916667  3.0419921875 12.0084635416667  C 5.06998697916667 9.41080729166666  7.73600260416667 7.2536892361111  11.0400390625 5.537109375  C 14.3440755208333 3.82052951388888  18.0810546875 2.4685329861111  22.2509765625 1.48111979166666  C 26.4208984375 0.493706597222219  30.6705729166667 0  35 0  C 39.3294270833333 0  43.5791015625 0.493706597222219  47.7490234375 1.48111979166666  C 51.9189453125 2.4685329861111  55.6559244791667 3.82052951388888  58.9599609375 5.537109375  C 62.2639973958333 7.2536892361111  64.9300130208333 9.41080729166666  66.9580078125 12.0084635416667  Z " fill-rule="nonzero" fill="#000000" stroke="none" transform="matrix(1 0 0 1 264 4384 )" />
    </g>
  </defs>
  <g transform="matrix(1 0 0 1 -264 -4384 )">
    <use xlink:href="#widget4" filter="url(#filter3)" />
    <use xlink:href="#widget4" />
  </g>
</svg>