<?xml version="1.0" encoding="utf-8"?>
<svg version="1.1" xmlns:xlink="http://www.w3.org/1999/xlink" width="35px" height="35px" xmlns="http://www.w3.org/2000/svg">
  <g transform="matrix(1 0 0 1 -816 -1625 )">
    <path d="M 34.767578125 25.3043619791667  C 34.9225260416667 26.4512803819444  35 27.6703559027778  35 28.9615885416667  C 35 30.6174045138889  34.4303385416667 32.0377604166667  33.291015625 33.22265625  C 32.1516927083333 34.4075520833333  30.7799479166667 35  29.17578125 35  L 5.82421875 35  C 4.22005208333333 35  2.84830729166667 34.4075520833333  1.708984375 33.22265625  C 0.569661458333333 32.0377604166667  0 30.6174045138889  0 28.9615885416667  C 0 27.6703559027778  0.0774739583333335 26.4512803819444  0.232421875 25.3043619791667  C 0.387369791666667 24.1574435763889  0.674479166666667 23.0029296875  1.09375 21.8408203125  C 1.51302083333333 20.6787109375  2.04622395833333 19.6837022569444  2.693359375 18.8557942708333  C 3.34049479166667 18.0278862847222  4.197265625 17.3518880208333  5.263671875 16.8277994791667  C 6.330078125 16.3037109375  7.55598958333333 16.0416666666667  8.94140625 16.0416666666667  C 11.3294270833333 17.9861111111111  14.1822916666667 18.9583333333333  17.5 18.9583333333333  C 20.8177083333333 18.9583333333333  23.6705729166667 17.9861111111111  26.05859375 16.0416666666667  C 27.4440104166667 16.0416666666667  28.669921875 16.3037109375  29.736328125 16.8277994791667  C 30.802734375 17.3518880208333  31.6595052083333 18.0278862847222  32.306640625 18.8557942708333  C 32.9537760416667 19.6837022569444  33.4869791666667 20.6787109375  33.90625 21.8408203125  C 34.3255208333333 23.0029296875  34.6126302083333 24.1574435763889  34.767578125 25.3043619791667  Z M 24.923828125 2.5634765625  C 26.974609375 4.2724609375  28 6.33463541666667  28 8.75  C 28 11.1653645833333  26.974609375 13.2275390625  24.923828125 14.9365234375  C 22.873046875 16.6455078125  20.3984375 17.5  17.5 17.5  C 14.6015625 17.5  12.126953125 16.6455078125  10.076171875 14.9365234375  C 8.025390625 13.2275390625  7 11.1653645833333  7 8.75  C 7 6.33463541666667  8.025390625 4.2724609375  10.076171875 2.5634765625  C 12.126953125 0.8544921875  14.6015625 0  17.5 0  C 20.3984375 0  22.873046875 0.8544921875  24.923828125 2.5634765625  Z " fill-rule="nonzero" fill="#000000" stroke="none" transform="matrix(1 0 0 1 816 1625 )" />
  </g>
</svg>