<?xml version="1.0" encoding="utf-8"?>
<svg version="1.1" xmlns:xlink="http://www.w3.org/1999/xlink" width="70px" height="70px" xmlns="http://www.w3.org/2000/svg">
  <g transform="matrix(1 0 0 1 -477 -1187 )">
    <path d="M 32.6457399103139 52.5  L 34.8430493273543 52.5  L 39.3946188340807 46.7329545454545  L 33.4304932735426 39.1761363636364  L 28.8789237668161 44.9431818181818  L 28.8789237668161 47.7272727272727  L 32.6457399103139 47.7272727272727  L 32.6457399103139 52.5  Z M 52.0683856502242 18.3451704545455  C 52.5130792227205 17.7817234848485  52.526158445441 17.2348484848485  52.1076233183857 16.7045454545455  C 51.6890881913303 16.1742424242424  51.2574738415546 16.1908143939394  50.8127802690583 16.7542613636364  L 37.0795964125561 34.1548295454545  C 36.6349028400598 34.7182765151515  36.6218236173393 35.2651515151515  37.0403587443946 35.7954545454545  C 37.4588938714499 36.3257575757576  37.8905082212257 36.3091856060606  38.335201793722 35.7457386363636  L 52.0683856502242 18.3451704545455  Z M 54.4618834080717 44.7940340909091  C 54.9850523168909 45.0591856060606  55.2466367713004 45.5397727272727  55.2466367713004 46.2357954545455  L 55.2466367713004 55.6818181818182  C 55.2466367713004 59.625946969697  54.14144245142 62.9983428030303  51.9310538116592 65.7990056818182  C 49.7206651718984 68.5996685606061  47.059043348281 70  43.9461883408072 70  L 11.3004484304933 70  C 8.18759342301943 70  5.52597159940209 68.5996685606061  3.31558295964126 65.7990056818182  C 1.10519431988042 62.9983428030303  0 59.625946969697  0 55.6818181818182  L 0 14.3181818181818  C 0 10.374053030303  1.10519431988042 7.00165719696969  3.31558295964126 4.20099431818182  C 5.52597159940209 1.40033143939393  8.18759342301943 0  11.3004484304933 0  L 43.9461883408072 0  C 45.5941704035874 0  47.1244394618834 0.414299242424239  48.5369955156951 1.24289772727272  C 48.9293721973094 1.4749053030303  49.164798206278 1.8560606060606  49.2432735426009 2.38636363636363  C 49.3217488789238 2.9498106060606  49.2040358744395 3.43039772727272  48.890134529148 3.828125  L 46.9674887892377 6.26420454545455  C 46.6012705530643 6.72821969696969  46.182735426009 6.86079545454546  45.7118834080717 6.66193181818182  C 45.1102391629297 6.46306818181818  44.5216741405082 6.36363636363637  43.9461883408072 7  L 11.3004484304933 7  C 9.57399103139013 6.36363636363637  8.09603886397609 7.14251893939393  6.86659192825112 8.70028409090909  C 5.63714499252616 10.2580492424242  5.02242152466368 12.1306818181818  5 14.3181818181818  L 5 55.6818181818182  C 5.02242152466368 57.8693181818182  5.63714499252616 59.7419507575757  6.86659192825112 61.2997159090909  C 8.09603886397609 62.8574810606061  9.57399103139013 63.6363636363636  11.3004484304933 63  L 43.9461883408072 63  C 45.6726457399103 63.6363636363636  47.1505979073244 62.8574810606061  48.3800448430493 61.2997159090909  C 49.6094917787743 59.7419507575757  50.2242152466368 57.8693181818182  50.2242152466368 55.6818181818182  L 50.2242152466368 49.4176136363636  C 50.2242152466368 48.9867424242424  50.3419282511211 48.6221590909091  50.5773542600897 48.3238636363636  L 53.0885650224215 45.1420454545455  C 53.4809417040359 44.6448863636364  53.9387144992526 44.5288825757576  54.4618834080717 44.7940340909091  Z M 26 42.9545454545455  L 51.4798206278027 9.54545454545455  L 62.780269058296 23.8636363636364  L 36.4125560538117 57  L 26 57  L 26 42.9545454545455  Z M 70 12.7272727272727  C 70 14.0530303030303  69.6337817638266 15.1799242424242  68.9013452914798 16.1079545454545  L 65.2914798206278 20.6818181818182  L 53.9910313901345 6.36363636363637  L 57.6008968609866 1.78977272727272  C 58.3333333333333 0.861742424242418  59.2227204783259 0.397727272727276  60.2690582959641 0.397727272727276  C 61.3153961136024 0.397727272727276  62.2047832585949 0.861742424242418  62.9372197309417 1.78977272727272  L 68.9013452914798 9.34659090909091  C 69.6337817638266 10.2746212121212  70 11.4015151515151  70 12.7272727272727  Z " fill-rule="nonzero" fill="#000000" stroke="none" transform="matrix(1 0 0 1 477 1187 )" />
  </g>
</svg>