<?xml version="1.0" encoding="utf-8"?>
<svg version="1.1" xmlns:xlink="http://www.w3.org/1999/xlink" width="50px" height="50px" xmlns="http://www.w3.org/2000/svg">
  <g transform="matrix(1 0 0 1 -113 -2419 )">
    <path d="M 49.8934659090909 38.7428977272727  C 49.9644886363636 38.9086174242424  50 39.157196969697  50 39.4886363636364  C 50 40.1278409090909  49.8816287878788 40.9623579545455  49.6448863636364 41.9921875  C 49.4081439393939 43.0220170454545  49.1595643939394 43.8328598484848  48.8991477272727 44.4247159090909  C 48.4019886363636 45.608428030303  46.9578598484849 46.8631628787879  44.5667613636364 48.1889204545455  C 42.3413825757576 49.3963068181818  40.139678030303 50  37.9616477272727 50  C 37.3224431818182 50  36.6950757575758 49.9585700757576  36.0795454545455 49.8757102272727  C 35.4640151515152 49.7928503787879  34.7833806818182 49.6448863636364  34.0376420454545 49.4318181818182  C 33.2919034090909 49.21875  32.7355587121212 49.0471117424242  32.3686079545455 48.9169034090909  C 32.0016571969697 48.7866950757576  31.344696969697 48.5440340909091  30.3977272727273 48.1889204545455  C 29.4507575757576 47.8338068181818  28.8707386363636 47.6207386363636  28.6576704545455 47.5497159090909  C 26.3375946969697 46.7211174242424  24.2660984848485 45.7386363636364  22.4431818181818 44.6022727272727  C 19.436553030303 42.7320075757576  16.311553030303 40.1751893939394  13.0681818181818 36.9318181818182  C 9.82481060606061 33.688446969697  7.26799242424243 30.563446969697  5.39772727272727 27.5568181818182  C 4.26136363636364 25.7339015151515  3.27888257575758 23.6624053030303  2.45028409090909 21.3423295454545  C 2.37926136363636 21.1292613636364  2.16619318181818 20.5492424242424  1.81107954545455 19.6022727272727  C 1.45596590909091 18.655303030303  1.21330492424242 17.9983428030303  1.08309659090909 17.6313920454545  C 0.952888257575758 17.2644412878788  0.78125 16.7080965909091  0.568181818181818 15.9623579545455  C 0.355113636363636 15.2166193181818  0.207149621212121 14.5359848484848  0.124289772727273 13.9204545454545  C 0.0414299242424242 13.3049242424242  0 12.6775568181818  0 12.0383522727273  C 0 9.86032196969697  0.603693181818182 7.65861742424242  1.81107954545455 5.43323863636363  C 3.13683712121212 3.04214015151514  4.39157196969697 1.59801136363636  5.57528409090909 1.10085227272727  C 6.16714015151515 0.840435606060602  6.97798295454545 0.591856060606055  8.0078125 0.355113636363635  C 9.03764204545455 0.11837121212121  9.87215909090909 0  10.5113636363636 0  C 10.842803030303 0  11.0913825757576 0.0355113636363646  11.2571022727273 0.106534090909088  C 11.6832386363636 0.248579545454547  12.3106060606061 1.14820075757576  13.1392045454545 2.80539772727273  C 13.3996212121212 3.25520833333333  13.7547348484849 3.89441287878787  14.2045454545455 4.72301136363637  C 14.6543560606061 5.55160984848485  15.0686553030303 6.30326704545455  15.4474431818182 6.97798295454545  C 15.8262310606061 7.65269886363637  16.1931818181818 8.28598484848485  16.5482954545455 8.87784090909091  C 16.6193181818182 8.97253787878787  16.8264678030303 9.26846590909091  17.1697443181818 9.765625  C 17.5130208333333 10.2627840909091  17.7675189393939 10.6830018939394  17.9332386363636 11.0262784090909  C 18.0989583333333 11.3695549242424  18.1818181818182 11.7069128787879  18.1818181818182 12.0383522727273  C 18.1818181818182 12.5118371212121  17.8444602272727 13.1036931818182  17.1697443181818 13.8139204545455  C 16.4950284090909 14.5241477272727  15.7611268939394 15.1751893939394  14.9680397727273 15.7670454545455  C 14.1749526515152 16.3589015151515  13.4410511363636 16.9862689393939  12.7663352272727 17.6491477272727  C 12.0916193181818 18.3120265151515  11.7542613636364 18.8565340909091  11.7542613636364 19.2826704545455  C 11.7542613636364 19.4957386363636  11.813446969697 19.7620738636364  11.9318181818182 20.0816761363636  C 12.0501893939394 20.4012784090909  12.1508049242424 20.6439393939394  12.2336647727273 20.8096590909091  C 12.3165246212121 20.9753787878788  12.4822443181818 21.2594696969697  12.7308238636364 21.6619318181818  C 12.9794034090909 22.0643939393939  13.1155303030303 22.2892992424242  13.1392045454545 22.3366477272727  C 14.938446969697 25.5800189393939  16.9981060606061 28.3617424242424  19.3181818181818 30.6818181818182  C 21.6382575757576 33.0018939393939  24.4199810606061 35.061553030303  27.6633522727273 36.8607954545455  C 27.7107007575758 36.8844696969697  27.9356060606061 37.0205965909091  28.3380681818182 37.2691761363636  C 28.7405303030303 37.5177556818182  29.0246212121212 37.6834753787879  29.1903409090909 37.7663352272727  C 29.3560606060606 37.8491950757576  29.5987215909091 37.9498106060606  29.9183238636364 38.0681818181818  C 30.2379261363636 38.186553030303  30.5042613636364 38.2457386363636  30.7173295454545 38.2457386363636  C 31.1434659090909 38.2457386363636  31.6879734848485 37.9083806818182  32.3508522727273 37.2336647727273  C 33.0137310606061 36.5589488636364  33.6410984848485 35.8250473484848  34.2329545454545 35.0319602272727  C 34.8248106060606 34.2388731060606  35.4758522727273 33.5049715909091  36.1860795454545 32.8302556818182  C 36.8963068181818 32.1555397727273  37.4881628787879 31.8181818181818  37.9616477272727 31.8181818181818  C 38.2930871212121 31.8181818181818  38.6304450757576 31.9010416666667  38.9737215909091 32.0667613636364  C 39.3169981060606 32.2324810606061  39.7372159090909 32.4869791666667  40.234375 32.8302556818182  C 40.7315340909091 33.1735321969697  41.0274621212121 33.3806818181818  41.1221590909091 33.4517045454545  C 41.7140151515152 33.8068181818182  42.3473011363636 34.1737689393939  43.0220170454545 34.5525568181818  C 43.6967329545455 34.9313446969697  44.4483901515152 35.3456439393939  45.2769886363636 35.7954545454545  C 46.1055871212121 36.2452651515151  46.7447916666667 36.6003787878788  47.1946022727273 36.8607954545455  C 48.8517992424242 37.6893939393939  49.7514204545455 38.3167613636364  49.8934659090909 38.7428977272727  Z " fill-rule="nonzero" fill="#ffffff" stroke="none" transform="matrix(1 0 0 1 113 2419 )" />
  </g>
</svg>