<?xml version="1.0" encoding="utf-8"?>
<svg version="1.1" xmlns:xlink="http://www.w3.org/1999/xlink" width="70px" height="70px" xmlns="http://www.w3.org/2000/svg">
  <g transform="matrix(1 0 0 1 -813 -1187 )">
    <path d="M 18.90625 52.3011363636364  C 19.6354166666667 53.2291666666667  20 54.3560606060606  20 55.6818181818182  L 20 65.2272727272727  C 20 66.5530303030303  19.6354166666667 67.6799242424242  18.90625 68.6079545454545  C 18.1770833333333 69.5359848484848  17.2916666666667 70  16.25 70  L 3.75 70  C 2.70833333333333 70  1.82291666666667 69.5359848484848  1.09375 68.6079545454545  C 0.364583333333333 67.6799242424242  0 66.5530303030303  0 65.2272727272727  L 0 55.6818181818182  C 0 54.3560606060606  0.364583333333333 53.2291666666667  1.09375 52.3011363636364  C 1.82291666666667 51.3731060606061  2.70833333333333 50.9090909090909  3.75 51  L 16.25 51  C 17.2916666666667 50.9090909090909  18.1770833333333 51.3731060606061  18.90625 52.3011363636364  Z M 18.90625 26.8465909090909  C 19.6354166666667 27.7746212121212  20 28.9015151515151  20 30.2272727272727  L 20 39.7727272727273  C 20 41.0984848484849  19.6354166666667 42.2253787878788  18.90625 43.1534090909091  C 18.1770833333333 44.0814393939394  17.2916666666667 44.5454545454545  16.25 44  L 3.75 44  C 2.70833333333333 44.5454545454545  1.82291666666667 44.0814393939394  1.09375 43.1534090909091  C 0.364583333333333 42.2253787878788  0 41.0984848484849  0 39.7727272727273  L 0 30.2272727272727  C 0 28.9015151515151  0.364583333333333 27.7746212121212  1.09375 26.8465909090909  C 1.82291666666667 25.9185606060606  2.70833333333333 25.4545454545455  3.75 26  L 16.25 26  C 17.2916666666667 25.4545454545455  18.1770833333333 25.9185606060606  18.90625 26.8465909090909  Z M 43.90625 52.3011363636364  C 44.6354166666667 53.2291666666667  45 54.3560606060606  45 55.6818181818182  L 45 65.2272727272727  C 45 66.5530303030303  44.6354166666667 67.6799242424242  43.90625 68.6079545454545  C 43.1770833333333 69.5359848484848  42.2916666666667 70  41.25 70  L 28.75 70  C 27.7083333333333 70  26.8229166666667 69.5359848484848  26.09375 68.6079545454545  C 25.3645833333333 67.6799242424242  25 66.5530303030303  25 65.2272727272727  L 25 55.6818181818182  C 25 54.3560606060606  25.3645833333333 53.2291666666667  26.09375 52.3011363636364  C 26.8229166666667 51.3731060606061  27.7083333333333 50.9090909090909  28.75 51  L 41.25 51  C 42.2916666666667 50.9090909090909  43.1770833333333 51.3731060606061  43.90625 52.3011363636364  Z M 18.90625 1.39204545454546  C 19.6354166666667 2.32007575757575  20 3.44696969696969  20 4.77272727272728  L 20 14.3181818181818  C 20 15.6439393939394  19.6354166666667 16.7708333333333  18.90625 17.6988636363636  C 18.1770833333333 18.6268939393939  17.2916666666667 19.0909090909091  16.25 19  L 3.75 19  C 2.70833333333333 19.0909090909091  1.82291666666667 18.6268939393939  1.09375 17.6988636363636  C 0.364583333333333 16.7708333333333  0 15.6439393939394  0 14.3181818181818  L 0 4.77272727272728  C 0 3.44696969696969  0.364583333333333 2.32007575757575  1.09375 1.39204545454546  C 1.82291666666667 0.464015151515149  2.70833333333333 0  3.75 0  L 16.25 0  C 17.2916666666667 0  18.1770833333333 0.464015151515149  18.90625 1.39204545454546  Z M 43.90625 26.8465909090909  C 44.6354166666667 27.7746212121212  45 28.9015151515151  45 30.2272727272727  L 45 39.7727272727273  C 45 41.0984848484849  44.6354166666667 42.2253787878788  43.90625 43.1534090909091  C 43.1770833333333 44.0814393939394  42.2916666666667 44.5454545454545  41.25 44  L 28.75 44  C 27.7083333333333 44.5454545454545  26.8229166666667 44.0814393939394  26.09375 43.1534090909091  C 25.3645833333333 42.2253787878788  25 41.0984848484849  25 39.7727272727273  L 25 30.2272727272727  C 25 28.9015151515151  25.3645833333333 27.7746212121212  26.09375 26.8465909090909  C 26.8229166666667 25.9185606060606  27.7083333333333 25.4545454545455  28.75 26  L 41.25 26  C 42.2916666666667 25.4545454545455  43.1770833333333 25.9185606060606  43.90625 26.8465909090909  Z M 68.90625 52.3011363636364  C 69.6354166666667 53.2291666666667  70 54.3560606060606  70 55.6818181818182  L 70 65.2272727272727  C 70 66.5530303030303  69.6354166666667 67.6799242424242  68.90625 68.6079545454545  C 68.1770833333333 69.5359848484848  67.2916666666667 70  66.25 70  L 53.75 70  C 52.7083333333333 70  51.8229166666667 69.5359848484848  51.09375 68.6079545454545  C 50.3645833333333 67.6799242424242  50 66.5530303030303  50 65.2272727272727  L 50 55.6818181818182  C 50 54.3560606060606  50.3645833333333 53.2291666666667  51.09375 52.3011363636364  C 51.8229166666667 51.3731060606061  52.7083333333333 50.9090909090909  53.75 51  L 66.25 51  C 67.2916666666667 50.9090909090909  68.1770833333333 51.3731060606061  68.90625 52.3011363636364  Z M 43.90625 1.39204545454546  C 44.6354166666667 2.32007575757575  45 3.44696969696969  45 4.77272727272728  L 45 14.3181818181818  C 45 15.6439393939394  44.6354166666667 16.7708333333333  43.90625 17.6988636363636  C 43.1770833333333 18.6268939393939  42.2916666666667 19.0909090909091  41.25 19  L 28.75 19  C 27.7083333333333 19.0909090909091  26.8229166666667 18.6268939393939  26.09375 17.6988636363636  C 25.3645833333333 16.7708333333333  25 15.6439393939394  25 14.3181818181818  L 25 4.77272727272728  C 25 3.44696969696969  25.3645833333333 2.32007575757575  26.09375 1.39204545454546  C 26.8229166666667 0.464015151515149  27.7083333333333 0  28.75 0  L 41.25 0  C 42.2916666666667 0  43.1770833333333 0.464015151515149  43.90625 1.39204545454546  Z M 68.90625 26.8465909090909  C 69.6354166666667 27.7746212121212  70 28.9015151515151  70 30.2272727272727  L 70 39.7727272727273  C 70 41.0984848484849  69.6354166666667 42.2253787878788  68.90625 43.1534090909091  C 68.1770833333333 44.0814393939394  67.2916666666667 44.5454545454545  66.25 44  L 53.75 44  C 52.7083333333333 44.5454545454545  51.8229166666667 44.0814393939394  51.09375 43.1534090909091  C 50.3645833333333 42.2253787878788  50 41.0984848484849  50 39.7727272727273  L 50 30.2272727272727  C 50 28.9015151515151  50.3645833333333 27.7746212121212  51.09375 26.8465909090909  C 51.8229166666667 25.9185606060606  52.7083333333333 25.4545454545455  53.75 26  L 66.25 26  C 67.2916666666667 25.4545454545455  68.1770833333333 25.9185606060606  68.90625 26.8465909090909  Z M 68.90625 1.39204545454546  C 69.6354166666667 2.32007575757575  70 3.44696969696969  70 4.77272727272728  L 70 14.3181818181818  C 70 15.6439393939394  69.6354166666667 16.7708333333333  68.90625 17.6988636363636  C 68.1770833333333 18.6268939393939  67.2916666666667 19.0909090909091  66.25 19  L 53.75 19  C 52.7083333333333 19.0909090909091  51.8229166666667 18.6268939393939  51.09375 17.6988636363636  C 50.3645833333333 16.7708333333333  50 15.6439393939394  50 14.3181818181818  L 50 4.77272727272728  C 50 3.44696969696969  50.3645833333333 2.32007575757575  51.09375 1.39204545454546  C 51.8229166666667 0.464015151515149  52.7083333333333 0  53.75 0  L 66.25 0  C 67.2916666666667 0  68.1770833333333 0.464015151515149  68.90625 1.39204545454546  Z " fill-rule="nonzero" fill="#000000" stroke="none" transform="matrix(1 0 0 1 813 1187 )" />
  </g>
</svg>