<?xml version="1.0" encoding="utf-8"?>
<svg version="1.1" xmlns:xlink="http://www.w3.org/1999/xlink" width="70px" height="70px" xmlns="http://www.w3.org/2000/svg">
  <g transform="matrix(1 0 0 1 -482 -1596 )">
    <path d="M 56.7418032786885 43.715801228364  C 57.9849726775956 40.9408151870463  58.6065573770492 38.0290340591848  58.6065573770492 34.9804578447795  C 58.6065573770492 31.9318816303741  57.9849726775956 29.0201005025126  56.7418032786885 26.2451144611949  C 55.4986338797814 23.4701284198772  53.818306010929 21.07295737949  51.7008196721311 19.0536013400335  C 49.5833333333333 17.034245300577  47.0696721311475 15.4317885724921  44.1598360655738 14.2462311557789  C 41.25 13.0606737390657  38.1967213114754 12.4678950307091  35 12.4678950307091  C 31.8032786885246 12.4678950307091  28.75 13.0606737390657  25.8401639344262 14.2462311557789  C 22.9303278688525 15.4317885724921  20.4166666666667 17.034245300577  18.2991803278689 19.0536013400335  C 16.181693989071 21.07295737949  14.5013661202186 23.4701284198772  13.2581967213115 26.2451144611949  C 12.0150273224044 29.0201005025126  11.3934426229508 31.9318816303741  11.3934426229508 34.9804578447795  C 11.3934426229508 38.0290340591848  12.0150273224044 40.9408151870463  13.2581967213115 43.715801228364  C 14.5013661202186 46.4907872696817  16.181693989071 48.8879583100689  18.2991803278689 50.9073143495254  C 20.4166666666667 52.9266703889819  22.9303278688525 54.5291271170668  25.8401639344262 55.71468453378  C 28.75 56.9002419504932  31.8032786885246 57.4930206588498  35 57.4930206588498  C 38.1967213114754 57.4930206588498  41.25 56.9002419504932  44.1598360655738 55.71468453378  C 47.0696721311475 54.5291271170668  49.5833333333333 52.9266703889819  51.7008196721311 50.9073143495254  C 53.818306010929 48.8879583100689  55.4986338797814 46.4907872696817  56.7418032786885 43.715801228364  Z M 69.7540983606557 44.6733668341709  C 70 44.9860413176996  70.0546448087432 45.3638563186302  69.9180327868852 45.8068118369626  C 69.8087431693989 46.1976549413735  69.5355191256831 46.4582170109808  69.0983606557377 46.5884980457845  L 57 50.3405918481295  L 57 62.3003908431044  C 57.1311475409836 62.7172901544761  56.9535519125683 63.0560208449656  56.5983606557377 63.3165829145729  C 56.1885245901639 63.5771449841802  55.792349726776 63.6292573981016  55.4098360655738 63.4729201563372  L 43.4426229508197 59.7989949748744  L 36.0655737704918 69.4919039642658  C 35.792349726776 69.8306346547553  35.4371584699454 70  35 70  C 34.5628415300546 70  34.207650273224 69.8306346547553  33.9344262295082 69.4919039642658  L 26.5573770491803 59.7989949748744  L 14.5901639344262 63.4729201563372  C 14.207650273224 63.6292573981016  13.8114754098361 63.5771449841802  13.4016393442623 63.3165829145729  C 13.0464480874317 63.0560208449656  12.8688524590164 62.7172901544761  13 62.3003908431044  L 13 50.3405918481295  L 0.901639344262295 46.5884980457845  C 0.46448087431694 46.4582170109808  0.191256830601093 46.1976549413735  0.0819672131147541 45.8068118369626  C -0.0546448087431692 45.3638563186302  0 44.9860413176996  0.245901639344262 44.6733668341709  L 7.62295081967213 34.9804578447795  L 0.245901639344262 25.2875488553881  C 0 24.9488181648986  -0.0546448087431692 24.571003163968  0.0819672131147541 24.1541038525963  C 0.191256830601093 23.7632607481854  0.46448087431694 23.5026986785781  0.901639344262295 23.3724176437744  L 13 19.6203238414294  L 13 7.66052484645449  C 12.8688524590164 7.24362553508282  13.0464480874317 6.90489484459333  13.4016393442623 6.64433277498604  C 13.8114754098361 6.38377070537874  14.207650273224 6.33165829145728  14.5901639344262 6.48799553322166  L 26.5573770491803 10.1619207146845  L 33.9344262295082 0.469011725293129  C 34.1803278688525 0.156337241764374  34.5355191256831 0  35 0  C 35.4644808743169 0  35.8196721311475 0.156337241764374  36.0655737704918 0.469011725293129  L 43.4426229508197 10.1619207146845  L 55.4098360655738 6.48799553322166  C 55.792349726776 6.33165829145728  56.1885245901639 6.38377070537874  56.5983606557377 6.64433277498604  C 56.9535519125683 6.90489484459333  57.1311475409836 7.24362553508282  57 7.66052484645449  L 57 19.6203238414294  L 69.0983606557377 23.3724176437744  C 69.5355191256831 23.5026986785781  69.8087431693989 23.7632607481854  69.9180327868852 24.1541038525963  C 70.0546448087432 24.571003163968  70 24.9488181648986  69.7540983606557 25.2875488553881  L 62.3770491803279 34.9804578447795  L 69.7540983606557 44.6733668341709  Z " fill-rule="nonzero" fill="#000000" stroke="none" transform="matrix(1 0 0 1 482 1596 )" />
  </g>
</svg>