<?xml version="1.0" encoding="utf-8"?>
<svg version="1.1" xmlns:xlink="http://www.w3.org/1999/xlink" width="70px" height="70px" xmlns="http://www.w3.org/2000/svg">
  <g transform="matrix(1 0 0 1 -135 -1187 )">
    <path d="M 36.4583333333333 40.5143229166667  L 53.8975694444444 32.265625  L 54.4444444444444 46.6666666666667  C 54.525462962963 48.7630208333333  53.6950231481482 50.7074652777778  51.953125 52.5  C 50.2112268518519 54.2925347222222  47.8313078703704 55.712890625  44.8133680555556 56.7610677083333  C 41.7954282407407 57.8092447916667  38.5243055555556 58.3333333333333  35 58.3333333333333  C 31.4756944444444 58.3333333333333  28.2045717592593 57.8092447916667  25.1866319444444 56.7610677083333  C 22.1686921296296 55.712890625  19.7887731481482 54.2925347222222  18.046875 52.5  C 16.3049768518519 50.7074652777778  15.474537037037 48.7630208333333  15.5555555555556 46.6666666666667  L 16.1024305555556 32.265625  L 33.5416666666667 40.5143229166667  C 33.9872685185185 40.7269965277778  34.4733796296296 40.8333333333333  35 40.8333333333333  C 35.5266203703704 40.8333333333333  36.0127314814815 40.7269965277778  36.4583333333333 40.5143229166667  Z M 69.3315972222222 16.0872395833333  C 69.7771990740741 16.3302951388889  70 16.8012152777778  70 17.5  C 70 18.1987847222222  69.7771990740741 18.6697048611111  69.3315972222222 18.9127604166667  L 35.3038194444444 34.9544270833333  C 35.2228009259259 34.9848090277778  35.1215277777778 35  35 35  C 34.8784722222222 35  34.7771990740741 34.9848090277778  34.6961805555556 34.9544270833333  L 14.8871527777778 25.56640625  C 14.0162037037037 26.5993923611111  13.2971643518519 28.2931857638889  12.7300347222222 30.6477864583333  C 12.1629050925926 33.0023871527778  11.8185763888889 35.7139756944444  11.6970486111111 38.7825520833333  C 12.9730902777778 39.8763020833333  13.6111111111111 41.5321180555556  13.6111111111111 43.75  C 13.6111111111111 45.8463541666667  13.0237268518519 47.4717881944444  11.8489583333333 48.6263020833333  L 13.6111111111111 68.359375  C 13.6516203703704 68.7847222222222  13.5706018518519 69.1644965277778  13.3680555555556 69.4986979166667  C 13.1857638888889 69.8328993055556  12.9427083333333 70  12.6388888888889 70  L 6.80555555555556 70  C 6.50173611111111 70  6.25868055555556 69.8328993055556  6.07638888888889 69.4986979166667  C 5.87384259259259 69.1644965277778  5.79282407407407 68.7847222222222  5.83333333333333 68.359375  L 7.59548611111111 48.6263020833333  C 6.42071759259259 47.4717881944444  5.83333333333333 45.8463541666667  5.83333333333333 43.75  C 5.83333333333333 41.5321180555556  6.4916087962963 39.8459201388889  7.80815972222222 38.69140625  C 8.03096064814815 32.40234375  9.0234375 27.3893229166667  10.7855902777778 23.65234375  L 0.668402777777778 18.9127604166667  C 0.222800925925926 18.6697048611111  0 18.1987847222222  0 17.5  C 0 16.8012152777778  0.222800925925926 16.3302951388889  0.668402777777778 16.0872395833333  L 34.6961805555556 0.0455729166666641  C 34.7771990740741 0.0151909722222188  34.8784722222222 0  35 0  C 35.1215277777778 0  35.2228009259259 0.0151909722222188  35.3038194444444 0.0455729166666641  L 69.3315972222222 16.0872395833333  Z " fill-rule="nonzero" fill="#000000" stroke="none" transform="matrix(1 0 0 1 135 1187 )" />
  </g>
</svg>